<?xml version="1.0" encoding="utf-8"?>
<svg viewBox="-0.01 0 434.2 438.17" xmlns="http://www.w3.org/2000/svg">
  <g id="Layer_1-2" transform="matrix(1, 0, 0, 1, 0, 3.552713678800501e-15)">
    <path d="M38.55,385.6h39.91v11.33h-26.9v11.48h25.87v10.82h-25.87v17.54h-13.01v-51.16Z" stroke-width="0" style="fill: rgb(255, 255, 255);"/>
    <path d="M83.88,425.88c0-7.09,5.12-10.82,17.47-12.5,7.24-1.02,9.36-2.05,9.36-3.95,0-2.12-2.49-3.51-6.21-3.51-4.82,0-8.26,2.49-9.14,6.58l-11.55-2.05c1.39-8.11,9.79-13.81,20.32-13.81,11.99,0,19.44,6.14,19.44,16.01v24.12h-11.47v-3.87h-.15c-2.92,3.22-7.53,4.97-13.23,4.97-9.06,0-14.84-4.68-14.84-11.99ZM111.36,422.08v-3.87h-.15c-.8,1.17-2.63,1.9-7.31,2.85-5.85,1.17-7.82,2.19-7.82,4.17s1.75,2.92,5.41,2.92c5.41,0,9.87-2.78,9.87-6.07Z" stroke-width="0" style="fill: rgb(255, 255, 255);"/>
    <path d="M131.61,380.2h12.64v11.84h-12.64v-11.84ZM131.68,398.03h12.64v38.74h-12.64v-38.74Z" stroke-width="0" style="fill: rgb(255, 255, 255);"/>
    <path d="M153.1,398.03h11.91v3.73h.15c2.78-3.14,6.8-4.53,11.33-4.53,2.7,0,4.82.37,6.94.95l-2.19,11.26c-2.27-.51-3.73-.73-5.85-.73-6.14,0-9.65,3.65-9.65,11.18v16.88h-12.64v-38.74Z" stroke-width="0" style="fill: rgb(255, 255, 255);"/>
    <path d="M187.67,411.19c0-15.86,11.33-26.97,27.34-26.97,12.42,0,21.85,7.02,24.27,17.03l-12.13,3.36c-1.68-5.55-5.85-8.99-12.13-8.99-8.62,0-14.33,6.14-14.33,15.57s5.7,15.57,14.33,15.57c7.46,0,11.62-3.07,12.13-8.26h-11.62v-9.28h24.27v6.8c0,13.67-9.43,22.15-24.78,22.15s-27.34-11.18-27.34-26.97Z" stroke-width="0" style="fill: rgb(255, 255, 255);"/>
    <path d="M245.49,425.88c0-7.09,5.12-10.82,17.47-12.5,7.24-1.02,9.36-2.05,9.36-3.95,0-2.12-2.49-3.51-6.21-3.51-4.82,0-8.26,2.49-9.14,6.58l-11.55-2.05c1.39-8.11,9.79-13.81,20.32-13.81,11.99,0,19.44,6.14,19.44,16.01v24.12h-11.47v-3.87h-.15c-2.92,3.22-7.53,4.97-13.23,4.97-9.06,0-14.84-4.68-14.84-11.99ZM272.97,422.08v-3.87h-.15c-.8,1.17-2.63,1.9-7.31,2.85-5.85,1.17-7.82,2.19-7.82,4.17s1.75,2.92,5.41,2.92c5.41,0,9.87-2.78,9.87-6.07Z" stroke-width="0" style="fill: rgb(255, 255, 255);"/>
    <path d="M293.59,398.03h11.62v3.58h.15c2.63-3,6.87-4.68,11.77-4.68s9.58,1.97,12.28,5.26h.15c3.29-3.36,7.97-5.26,13.08-5.26,10.38,0,18.13,6.8,18.13,16.52v23.32h-12.28v-21.42c0-4.75-3.07-7.67-7.67-7.67s-7.82,3-7.82,7.67v21.42h-11.62v-21.42c0-4.75-3.07-7.67-7.67-7.67s-7.82,3-7.82,7.67v21.42h-12.28v-38.74Z" stroke-width="0" style="fill: rgb(255, 255, 255);"/>
    <path d="M367.41,417.47c0-11.91,9.36-20.83,21.93-20.83s21.78,8.99,21.78,20.83v3.73h-31.21c.37,4.39,4.02,7.02,10.23,7.02,4.02,0,7.82-1.75,11.69-5.41l7.02,8.04c-5.26,4.9-11.11,7.31-19.15,7.31-13.67,0-22.29-8.19-22.29-20.68ZM398.84,412.87c-.51-4.17-4.02-6.65-9.36-6.65s-8.99,2.71-9.5,6.65h18.86Z" stroke-width="0" style="fill: rgb(255, 255, 255);"/>
    <path d="M49.44,38.59c-7.46-7.46-7.46-19.54,0-27s19.54-7.46,27,0l76.33,76.33-7.04,46.96L49.44,38.59Z" fill="#2d287e" stroke-width="0"/>
    <path d="M313.58,132.82c0-49.82-40.38-90.2-90.2-90.2s-90.2,40.38-90.2,90.2l31.36,20.6,149.04-20.6Z" fill="#fcd87e" stroke-width="0"/>
    <path d="M396.88,26.99s.03-.09.03-.09c0,0,0,0-.01,0,0,.03,0,.06-.01.09Z" fill="#0fbfae" stroke-width="0"/>
    <path d="M383.04,1.43c-15.54-6.11-25.93,8.77-35.82,18.2-17.71,16.56-34.49,39.57-53.21,46.68-15.52,5.89-31.59,11.03-43.17,22.75-23.75,22.94-48.1,46.2-70.59,70,5.56-2.65,11.29-3,17.29-1.72,15.61,2.45,21.95-28.9,38.48-15.22,0-.01.02-.02.03-.03,0,.01-.02.02-.02.03,2.91,4.33,9.49,15.81,8.36,21.41,14.35-11.65,28.84-36.84,48.93-39.81,8.91-2.31,16.92-10.38,23.5-16.91,14.36-15.12,21.53-17.75,33.87-34.47,0,0,0,0,0,0,17.06-12.28,30.1-29.76,45.52-44.08.2-.47.03-1.13.69-1.37,2.25-10.86-2.74-22.15-13.85-25.47ZM269.87,103.27c-.53.6-1.08,1.21-1.65,1.8.52-.58,1.08-1.19,1.65-1.8ZM332.38,75.03c-.38-.03-.75-.07-1.13-.11.38.03.76.08,1.13.11,2.57.06,5.12-.01,7.64-.26-2.53.25-5.08.31-7.64.26Z" fill="#54c4cd" stroke-width="0"/>
    <path d="M137.26,318.63c.5.04.84.28.97.77-.32-.26-.65-.52-.97-.77Z" fill="#fb4735" stroke-width="0"/>
    <path d="M173.7,184.11c-11.19-13.74,13.14-38.59,23.37-32.99,3.7,2.02.64-8.02,3.68-11.2,3.43-4.25,11.93-7.21,16.99-6.97,9.59-.8,15.67-2.08,25.88,10.51,5.69,7.02,3.01,16.6-3.15,21.17-8.42,8.3-20.55,16.6-28.69,25.18-9.09,10.51-34.07,8.96-38.09-5.7Z" fill="#54c4cd" stroke-width="0"/>
    <path d="M303.26,206.02c-1.66-.42-2.88-1.24-2.86-3.17,1.18.85,2.46,1.61,2.86,3.17Z" fill="#fb4735" stroke-width="0"/>
    <path d="M296.43,198.94c-.14-.25-.29-.51-.43-.76.15.26.29.51.43.76Z" fill="#fb4735" stroke-width="0"/>
    <path d="M396.2,28.27c.2-.48.03-1.14.7-1.37.87,1.02-.27,1.02-.7,1.37Z" fill="#d9895b" stroke-width="0"/>
    <path d="M297.63,200.22c-.15-.14-.3-.29-.45-.43.15.14.3.29.45.43Z" fill="#fb4735" stroke-width="0"/>
    <path d="M298.26,200.87c-.15-.15-.31-.3-.46-.45.15.15.31.3.46.45Z" fill="#fb4735" stroke-width="0"/>
    <path d="M298.88,201.52c-.16-.16-.33-.32-.49-.48.16.16.33.32.49.48Z" fill="#fb4735" stroke-width="0"/>
    <path d="M324.22,150.99c-.09-.18-.19-.36-.28-.54.09.18.19.36.28.54Z" fill="#e43b37" stroke-width="0"/>
    <path d="M299.5,202.19c-.17-.18-.34-.35-.51-.53.17.18.34.35.51.53Z" fill="#fb4735" stroke-width="0"/>
    <path d="M300.12,202.85c-.18-.19-.36-.37-.55-.56.18.19.37.37.55.56Z" fill="#fb4735" stroke-width="0"/>
    <path d="M297.01,199.57c-.15-.14-.31-.27-.46-.41.15.14.31.27.46.41Z" fill="#fb4735" stroke-width="0"/>
    <path d="M106.33,28.41c-4.15-4.15-4.06-10.95.27-14.99s10.63-3.55,14.63.44l34.09,34.09c4.07,4.07,4.07,10.66,0,14.72h0c-4.07,4.07-10.66,4.07-14.72,0l-34.27-34.27Z" fill="#709fff" stroke-width="0"/>
    <path d="M220.58,190.34l19.63-19.64c7.81-7.81,4.29-24,12.1-16.19l90.3,90.29c9.16,9.16,4.34,19.28-4.49,28.76-9.27,9.95-25.82,2.88-35.35-6.65" fill="#709fff" stroke-width="0"/>
    <path d="M239.47,198.56c-.56-.54-9.06,2.79-8.26,2.03,3.43-3.23,6.01-7.39,10.41-9.56-1.9-2.84-4.74-4.79-6.94-7.35-6.75,3.9-14.74,5.63-20.88,10.69-18.52,5.66-28.95,8.36-38.68.75-11.61-9.08,4.06-21.67-7.33-32.86-8.94-8.79-47.14-52.68-47.14-52.68L49.55,38.49c-7.46-7.46-19.54-7.46-27,0-1.07,1.07-1.96,2.24-2.72,3.46-.93.92-1.6,2.31-1.98,4.31-2.06,6.57-.5,14.03,4.7,19.23l.28.28c.99,1.16,2.07,2.27,3.19,3.36,11.33,11.04,13.22,13.29,20.72,20.82.09.08.18.15.26.24l4.97,4.97c.56.55,1.13,1.12,1.74,1.72.02-.05.05-.1.07-.15h0c-.02.05-.05.1-.07.15.13.14.26.27.38.41l20.12,20.12c2.42,2.35,4.82,4.7,7.19,7.09,1.28,1.25,2.3,2.6,2.56,4.35-.04.12-.08.23-.12.35.82,3.41-.09,7.14-2.75,9.8-4.07,4.07-10.66,4.07-14.72,0l-34.06-34.06s-.03,0-.05,0c-7.48-7.14-19.32-7.05-26.67.3-7.46,7.46-7.46,19.54,0,27l96.28,96.28,4.31-28.76c11.2,3.59-5.41,28.86,6.32,35.13,11,5.88,26.51,24.29,35.09,31.5,14.6,12.27,48.38-7.39,49.85-3.95,6.9,20.42,12.77-3.05,32.32,9.39,1.73,1.16,2.52.69,2.42-1.3.52-19.82,27.75-29.9,47.43-25.09-11.27-13.77-27.79-33.87-40.14-46.88Z" fill="#709fff" stroke-width="0"/>
    <path d="M98.96,127.25c-5.56-5.56-5.44-14.65.37-20.06,5.53-5.15,14.24-4.75,19.58.59l45.64,45.64c5.44,5.44,5.44,14.27,0,19.71h0c-5.44,5.44-14.27,5.44-19.71,0l-45.88-45.88Z" fill="#709fff" stroke-width="0"/>
    <path d="M428.6,133.53c7.46-7.46,7.46-19.54,0-27-7.46-7.46-19.54-7.46-27,0l-98.83,98.83,31,23,94.83-94.83Z" fill="#54c4cd" stroke-width="0"/>
    <path d="M300.26,202.68l-.14.09c-.99-1.01-1.92-2.08-2.94-3.06.02-.13-.04-.21-.17-.22-12.12-13.39-26.01-25.47-38.71-38.44-1.46-1.44-2.1-.36-2.97.51-6.37,6.39-44.72,51.59-67.92,46.63-21.64-4.63-34.8-30.68-24.14-48.17,4.84-7.94,16.09-17.37,27.44-28.37,19.68-19.08,41.38-39.52,42.78-40.9,15.36-15.25,37.57-28.44,60.53-24.44,0,1.42,0-1.42,0,0-13.83,5.24-33.03,12.45-43.17,22.68-23.75,22.94-45.91,48.49-70.58,69.99-11.46,9.98-7.93,32.54,7.67,35.62,8.3,1.64,14.75-.94,21.67-6.06,15.28-11.33,61.72-65.62,81.85-68.62,8.91-2.31,17.07-6.12,23.65-12.65,14.37-15.12,65.7-64.76,81.12-79.08.43-.36,1.57-.35.7-1.38l-.03.09c1.81.37,2.24-1.36,3.14-2.22,11.4-11.6,33.79-3.33,32.98,14.07-1.29,14.98-17.48,23.11-26.38,33.8-26.9,26.57-84.61,83.83-111.71,110.2-.62-.54,29.28-31.63,28.99-32.45" fill="#2d287e" stroke-width="0"/>
    <path d="M303.97,141l50.53,50.52c8.88,8.88,9.54,23.34.98,32.53-8.98,9.64-24.08,9.84-33.32.61l-64.63-64.61,19.03-19.03c7.57-7.57,19.84-7.57,27.41,0Z" fill="#709fff" stroke-width="0"/>
    <circle cx="147.6" cy="298.02" r="11.37" fill="#fff" stroke-width="0"/>
    <circle cx="195.87" cy="175.45" r="11.37" fill="#fff" stroke-width="0"/>
    <path d="M342.76,165.17c-3.54,3.54-8.96,4.01-13.02,1.44l-.14.14,9.37,9.37,9.47-9.47-3.58-3.58-2.1,2.1Z" fill="#54c4cd" stroke-width="0"/>
    <path d="M327.93,150.34l2.1-2.1-.32-.32-9.37,9.37,6.25,6.25c-2.69-4.07-2.25-9.61,1.34-13.19Z" fill="#2d287e" stroke-width="0"/>
    <path d="M329.57,166.51l.14.14.04-.04c-.06-.04-.12-.07-.17-.1Z" fill="#014f80" stroke-width="0"/>
    <polygon points="180.76 152.2 114.24 85.68 105.44 94.48 172.72 161.76 180.76 152.2" fill="#2d287e" stroke-width="0"/>
    <path d="M258.29,145.16l65.26,65.26c9.7,9.7,25.55,9.48,34.98-.64,1.21-1.3,2.24-2.71,3.1-4.19.62,6.64-1.38,13.45-6.23,18.66-9.43,10.12-25.28,10.34-34.98.64l-70.93-70.93,8.8-8.8Z" fill="#2d287e" stroke-width="0"/>
    <path d="M233.58,182.34l75.98,75.97c9.7,9.7,25.55,9.48,34.98-.64,1.21-1.3,2.24-2.71,3.1-4.19.62,6.64-1.38,13.45-6.23,18.66-9.43,10.12-25.28,10.34-34.98.64l-81.65-81.64,8.8-8.8Z" fill="#2d287e" stroke-width="0"/>
    <path d="M63.99,233.36c9.49,10.19,25.46,10.41,35.22.64l42.18-42.17c-1.17-4.17-3.45-8.1-6.87-11.3-9.72-9.05-25.01-8.35-34.4,1.04l-32.16,32.16c-4.32,4.32-6.67,9.85-7.09,15.5,0-.03,0-.06,0-.09.87,1.49,1.9,2.91,3.12,4.22Z" fill="#54c4cd" stroke-width="0"/>
    <path d="M102.57,248.37s.01,0,.02-.01l32.58-32.58s0,0,0,0l-32.6,32.6Z" fill="#54c4cd" stroke-width="0"/>
    <path d="M141.39,191.83l-42.18,42.17c-9.76,9.76-25.73,9.55-35.22-.64-1.22-1.31-2.25-2.73-3.12-4.22,0,.03,0,.06,0,.09-.51,6.87,1.85,13.91,7.11,19.15h0c9.56,9.53,25.03,9.53,34.59-.01l32.6-32.6c6.48-6.49,8.54-15.7,6.23-23.95Z" fill="#2d287e" stroke-width="0"/>
    <path d="M93.01,273.26c9.49,10.19,25.46,10.41,35.22.64l42.18-42.17c-1.17-4.17-3.45-8.1-6.87-11.3-9.72-9.05-25.01-8.35-34.4,1.04l-32.16,32.16c-4.32,4.32-6.67,9.85-7.09,15.5,0-.03,0-.06,0-.09.87,1.49,1.9,2.91,3.12,4.22Z" fill="#fff" stroke-width="0"/>
    <path d="M131.58,288.27s.01,0,.02-.01l32.58-32.58s0,0,0,0l-32.6,32.6Z" fill="#54c4cd" stroke-width="0"/>
    <path d="M170.41,231.73l-42.18,42.17c-9.76,9.76-25.73,9.55-35.22-.64-1.22-1.31-2.25-2.73-3.12-4.22,0,.03,0,.06,0,.09-.51,6.87,1.85,13.91,7.11,19.15h0c9.56,9.53,25.03,9.53,34.59-.01l32.6-32.6c6.48-6.49,8.54-15.7,6.23-23.95Z" fill="#2d287e" stroke-width="0"/>
    <circle cx="110.64" cy="196.19" r="12.62" fill="#fff" stroke-width="0"/>
    <path d="M308.1,290.52c-9.65,10.36-25.87,10.58-35.79.65l-42.86-42.86c1.19-4.24,3.5-8.24,6.98-11.48,9.87-9.2,25.42-8.49,34.96,1.05l32.68,32.68c4.39,4.39,6.78,10.01,7.2,15.75,0-.03,0-.06,0-.09-.88,1.51-1.93,2.95-3.17,4.29Z" fill="#fff" stroke-width="0"/>
    <path d="M268.91,305.78s-.01,0-.02-.01l-33.11-33.11s0,0,0,0l33.13,33.12Z" fill="#54c4cd" stroke-width="0"/>
    <path d="M229.45,248.32l42.86,42.86c9.92,9.92,26.15,9.7,35.79-.65,1.24-1.33,2.29-2.78,3.17-4.29,0,.03,0,.06,0,.09.52,6.98-1.88,14.13-7.23,19.46h0c-9.72,9.69-25.44,9.68-35.15-.01l-33.13-33.12c-6.59-6.59-8.68-15.96-6.33-24.33Z" fill="#2d287e" stroke-width="0"/>
    <path d="M266.43,318.56c-9.65,10.36-25.87,10.58-35.79.65l-42.86-42.86c1.19-4.24,3.5-8.24,6.98-11.48,9.87-9.2,25.42-8.49,34.96,1.05l32.68,32.68c4.39,4.39,6.78,10.01,7.2,15.75,0-.03,0-.06,0-.09-.88,1.51-1.93,2.95-3.17,4.29Z" fill="#709fff" stroke-width="0"/>
    <path d="M227.23,333.81s-.01,0-.02-.01l-33.11-33.11s0,0,0,0l33.13,33.12Z" fill="#54c4cd" stroke-width="0"/>
    <path d="M187.78,276.36l42.86,42.86c9.92,9.92,26.15,9.7,35.79-.65,1.24-1.33,2.29-2.78,3.17-4.29,0,.03,0,.06,0,.09.52,6.98-1.88,14.13-7.23,19.46h0c-9.72,9.69-25.44,9.68-35.15-.01l-33.13-33.12c-6.59-6.59-8.68-15.96-6.33-24.33Z" fill="#2d287e" stroke-width="0"/>
    <g opacity=".44">
      <path d="M139.51,320.72c.32.26.65.52.97.77-.13-.5-.47-.73-.97-.77Z" fill="#014f80" stroke-width="0"/>
      <path d="M296.25,68.4c0-.1,0-.17,0-.24,0,.07,0,.15,0,.24Z" fill="#014f80" stroke-width="0"/>
      <path d="M296.25,68.15c0-.07,0-.12,0-.14,0,.02,0,.07,0,.14Z" fill="#014f80" stroke-width="0"/>
      <path d="M296.25,68.17s0-.01,0-.02v.02Z" fill="#014f80" stroke-width="0"/>
      <path d="M296.25,68.01s0-.02,0,0h0Z" fill="#014f80" stroke-width="0"/>
    </g>
    <path d="M129.65,305.97c9.49,10.19,25.46,10.41,35.22.64l42.18-42.17c-1.17-4.17-3.45-8.1-6.87-11.3-9.72-9.05-25.01-8.35-34.4,1.04l-32.16,32.16c-4.32,4.32-6.67,9.85-7.09,15.5,0-.03,0-.06,0-.09.87,1.49,1.9,2.91,3.12,4.22Z" fill="#54c4cd" stroke-width="0"/>
    <path d="M168.22,320.98s.01,0,.02-.01l32.58-32.58s0,0,0,0l-32.6,32.6Z" fill="#54c4cd" stroke-width="0"/>
    <path d="M207.04,264.44l-42.18,42.17c-9.76,9.76-25.73,9.55-35.22-.64-1.22-1.31-2.25-2.73-3.12-4.22,0,.03,0,.06,0,.09-.51,6.87,1.85,13.91,7.11,19.15h0c9.56,9.53,25.03,9.53,34.59-.01l32.6-32.6c6.48-6.49,8.54-15.7,6.23-23.95Z" fill="#2d287e" stroke-width="0"/>
    <circle cx="180.84" cy="266.39" r="12.62" fill="#fff" stroke-width="0"/>
  </g>
</svg>